<svg width="57" height="52" viewBox="0 0 57 52" fill="none" xmlns="http://www.w3.org/2000/svg">
<path d="M53.2 -1.2L35.7 -5L0 30.7L21.2 51.9L56.9 16.2L53.2 -1.2ZM45.5 6.5C43.1 4.1 46.8 0.5 49.2 2.8C51.5 5.2 47.8 8.9 45.5 6.5Z" fill="#F0F4FB"/>
<path d="M31.0995 26.0086L11.7236 31.7212L12.4872 34.311L31.863 28.5985L31.0995 26.0086Z" fill="#2967FF"/>
<path d="M18.4 25.6C16.7 23.9 16.8 21 18.7 19.1C20.6 17.2 23.5 17.1 25.2 18.8C26.9 20.5 26.8 23.4 24.9 25.3C23 27.2 20.1 27.3 18.4 25.6ZM23.3 20.7C22.6 20 21.5 20.2 20.7 21C19.9 21.8 19.8 23 20.4 23.6C21.1 24.3 22.2 24.1 23 23.3C23.8 22.6 23.9 21.4 23.3 20.7Z" fill="#2967FF"/>
<path d="M18.5999 41.4C16.8999 39.7 16.9999 36.8 18.8999 34.9C20.7999 33 23.6999 32.9 25.3999 34.6C27.0999 36.3 26.9999 39.2 25.0999 41.1C23.1999 43 20.2999 43.1 18.5999 41.4ZM23.3999 36.6C22.6999 35.9 21.5999 36.1 20.7999 36.9C19.9999 37.7 19.8999 38.9 20.4999 39.5C21.1999 40.2 22.2999 40 23.0999 39.2C23.9999 38.4 24.0999 37.3 23.3999 36.6Z" fill="#2967FF"/>
</svg>
