<svg width="62" height="58" viewBox="0 0 62 58" fill="none" xmlns="http://www.w3.org/2000/svg">
<path d="M2.71289 27.703L9.06677 55.2602C9.42373 56.8308 10.7802 57.9017 12.4222 57.9017H48.4037C49.9743 57.9017 51.4021 56.8308 51.7591 55.2602L58.1129 27.703H2.71289ZM14.7067 53.2613C14.5639 53.2613 14.4925 53.2613 14.3498 53.2613C13.4217 53.2613 12.6364 52.6187 12.4936 51.6906L10.1376 38.4832C9.92347 37.4837 10.6374 36.4842 11.6369 36.27C12.6364 36.0558 13.6358 36.7697 13.85 37.7692L16.206 50.9767C16.4201 52.0476 15.7776 53.0471 14.7067 53.2613ZM22.5598 53.2613C22.4884 53.2613 22.4884 53.2613 22.417 53.2613C21.4176 53.2613 20.6322 52.476 20.5608 51.4765L19.6327 38.269C19.5614 37.1981 20.3467 36.3414 21.3462 36.27C22.417 36.1986 23.2737 36.9839 23.3451 37.9834L24.2732 51.1909C24.3446 52.2618 23.5593 53.1899 22.5598 53.2613ZM32.3405 51.4051C32.3405 52.476 31.4838 53.2613 30.4843 53.2613C29.4134 53.2613 28.6281 52.4046 28.6281 51.4051V38.1976C28.6281 37.1267 29.4848 36.3414 30.4843 36.3414C31.5552 36.3414 32.3405 37.1981 32.3405 38.1976V51.4051ZM40.3364 51.5479C40.265 52.5474 39.4083 53.3327 38.4802 53.3327C38.4088 53.3327 38.4088 53.3327 38.3374 53.3327C37.2665 53.2613 36.4812 52.3332 36.624 51.3337L37.5521 38.1262C37.6235 37.0553 38.5516 36.3414 39.5511 36.4128C40.6219 36.4842 41.4073 37.4123 41.2645 38.4118L40.3364 51.5479ZM50.6882 38.4832L48.3323 51.6906C48.1895 52.6187 47.4042 53.2613 46.4761 53.2613C46.3333 53.2613 46.2619 53.2613 46.1191 53.2613C45.1196 53.0471 44.4057 52.119 44.6199 51.0481L46.9758 37.8406C47.19 36.8411 48.1181 36.1272 49.189 36.3414C50.1884 36.4842 50.831 37.4837 50.6882 38.4832Z" fill="#FF2D87"/>
<path d="M56.8279 33.6279H4.56908C2.07037 33.6279 0 31.5575 0 29.0588C0 26.5601 2.07037 24.4897 4.56908 24.4897H56.8279C59.3266 24.4897 61.397 26.5601 61.397 29.0588C61.397 31.5575 59.398 33.6279 56.8279 33.6279Z" fill="#FF7CB4"/>
<path d="M30.4129 32.8424C32.5026 32.8424 34.1967 31.1484 34.1967 29.0587C34.1967 26.969 32.5026 25.2749 30.4129 25.2749C28.3232 25.2749 26.6292 26.969 26.6292 29.0587C26.6292 31.1484 28.3232 32.8424 30.4129 32.8424Z" fill="#FF2D87"/>
<path d="M30.4128 29.0585L24.9871 4" stroke="#FF7CB4" stroke-width="6.6048" stroke-miterlimit="10" stroke-linecap="round"/>
</svg>
