<svg width="94" height="100" viewBox="0 0 94 100" fill="none" xmlns="http://www.w3.org/2000/svg">
<path fill-rule="evenodd" clip-rule="evenodd" d="M17.9698 -5.85458C24.9572 -8.86452 33.1399 -5.7524 36.266 1.25424L36.2689 1.26079L42.7384 16.0483C43.1767 17.0501 42.7199 18.2175 41.7181 18.6558C40.7163 19.0941 39.5488 18.6373 39.1105 17.6355L32.6469 2.86142C30.4145 -2.13315 24.5656 -4.37673 19.5482 -2.2228C14.5551 0.0124092 12.3142 5.86323 14.4723 10.8804C14.473 10.882 14.4737 10.8836 14.4744 10.8852L20.9366 25.6559C21.3749 26.6577 20.9181 27.8251 19.9162 28.2634C18.9144 28.7017 17.747 28.2449 17.3087 27.2431L10.8376 12.4519C7.82762 5.46451 10.9398 -2.71827 17.9464 -5.84432L17.9581 -5.84952L17.9698 -5.85458Z" fill="#FF7CB4"/>
<path d="M93.2122 83.8179L33.2572 110.146L6.92871 44.4638L62.4495 19.9829L93.2122 83.8179Z" fill="#FF7CB4"/>
<path d="M54.1351 2.98535L0 26.8196L6.92855 44.4643L62.4493 19.9834L54.1351 2.98535Z" fill="#FF2D87"/>
<path d="M0 26.8192L18.5685 30.4221L6.92855 44.4639L0 26.8192Z" fill="#FF7CB4"/>
<path d="M54.1346 2.98535L44.1575 19.0596L62.4488 19.9834L54.1346 2.98535Z" fill="#FF7CB4"/>
<path d="M18.5687 30.4211L21.8944 37.904L6.92871 44.463L18.5687 30.4211Z" fill="#FF2D87"/>
<path d="M44.1575 19.0592L47.4832 26.6344L62.4488 19.983L44.1575 19.0592Z" fill="#FF2D87"/>
<path fill-rule="evenodd" clip-rule="evenodd" d="M25.6373 11.513C32.6247 8.50304 40.8074 11.6152 43.9335 18.6218L43.9364 18.6283L50.4059 33.4158L46.778 35.003L40.3144 20.229C38.082 15.2344 32.2331 12.9908 27.2157 15.1447C22.2226 17.3799 19.9816 23.2308 22.1398 28.2479C22.1405 28.2495 22.1412 28.2512 22.1419 28.2528L28.6041 43.0234L24.9762 44.6106L18.505 29.8194C15.4951 22.8321 18.6072 14.6493 25.6139 11.5232L25.6256 11.518L25.6373 11.513Z" fill="white"/>
<path d="M54.7817 68.2049L42.1255 73.8401C41.4789 74.1172 40.8322 73.9325 40.3703 73.4706L33.1646 65.5258C32.4256 64.6944 32.7027 63.4935 33.7189 63.0316L52.2874 54.8097C53.2112 54.3478 54.3198 54.9944 54.5045 56.0106L55.7979 66.6344C55.7979 67.2811 55.4284 67.9277 54.7817 68.2049Z" fill="white"/>
<path d="M57.1834 70.6068L42.8644 76.9811C42.4949 77.1659 41.9406 76.9811 41.7559 76.5192C41.5711 76.1497 41.7559 75.5954 42.2178 75.4106L56.5368 69.0364C57.1834 68.7592 57.6453 68.0202 57.5529 67.2811L55.9825 53.9783C55.7977 52.685 56.5368 51.484 57.7377 50.9298L61.1558 49.4517C61.5253 49.2669 62.0796 49.4517 62.2644 49.9136C62.4491 50.2831 62.2644 50.8374 61.8025 51.0221L58.3844 52.5002C57.8301 52.7774 57.553 53.2393 57.6453 53.8859L59.1234 67.1887C59.3082 68.6668 58.5691 69.9602 57.1834 70.6068Z" fill="white"/>
<path d="M49.4242 77.351C49.7937 78.1824 49.4242 79.1986 48.5928 79.5681C47.7614 79.9377 46.7452 79.5681 46.3757 78.7367C46.0061 77.9053 46.3757 76.8891 47.2071 76.5196C48.0385 76.1501 49.0547 76.5196 49.4242 77.351Z" fill="white"/>
<path d="M55.4286 74.7636C55.7981 75.595 55.4286 76.6112 54.5972 76.9807C53.7658 77.3502 52.7496 76.9807 52.3801 76.1493C52.0105 75.3178 52.3801 74.3017 53.2115 73.9321C54.0429 73.4702 55.0591 73.8398 55.4286 74.7636Z" fill="white"/>
</svg>
